<svg width="119" height="114" viewBox="0 0 119 114" fill="none" xmlns="http://www.w3.org/2000/svg">
<path d="M66.1746 100.41C94.9899 100.41 118.349 77.9327 118.349 50.2051C118.349 22.4776 94.9899 0 66.1746 0C37.3592 0 13.9998 22.4776 13.9998 50.2051C13.9998 77.9327 37.3592 100.41 66.1746 100.41Z" fill="#0061FF"/>
<path d="M87.998 49.4958L69.4443 67.3523L53.491 62.9663L48.8584 47.3581L67.4121 29.5016L48.5541 24.2143L25.6621 46.2421L30.4164 63.2428L0.727783 91.8106L5.74238 108.561L5.53612 108.759L5.82353 108.837L5.82692 108.85L5.83706 108.841L23.2478 113.666L52.9364 85.0982L70.6041 89.6729L93.4928 67.6451L87.998 49.4958Z" fill="white"/>
<path d="M93.0938 44.8365L105.179 33.2076L100.756 17.3196L84.2447 13.0638L72.1596 24.6926L76.5825 40.5806L93.0938 44.8365Z" fill="white"/>
</svg>
