<svg width="19" height="24" viewBox="0 0 19 24" fill="none" xmlns="http://www.w3.org/2000/svg">
<g clip-path="url(#clip0_6_203)">
<path d="M0.5 13.5008C0.5 13.0983 0.5 12.6963 0.5 12.2938C0.512523 12.239 0.528069 12.1842 0.536706 12.1289C0.597594 11.7398 0.627822 11.3429 0.722393 10.9621C1.14731 9.25634 2.01486 7.85764 3.58716 6.97714C4.60498 6.40712 5.69406 6.16357 6.84143 6.44728C7.49177 6.60836 8.12397 6.85493 8.75056 7.09762C9.3141 7.31569 9.85475 7.35283 10.4179 7.10366C10.7905 6.93871 11.1831 6.81909 11.5657 6.67615C13.2248 6.05648 14.8312 6.183 16.3784 7.03241C17.0098 7.37917 17.5146 7.86801 17.9084 8.49373C16.2497 9.54653 15.4167 11.0135 15.5575 12.9977C15.6987 14.9859 16.7537 16.3194 18.4991 17.1558C18.4801 17.2262 18.4715 17.2681 18.4577 17.3083C17.8704 19.0144 16.932 20.5172 15.7682 21.8813C14.9659 22.8223 13.9558 23.2217 12.7269 22.8845C12.2998 22.767 11.8826 22.6077 11.4689 22.4466C10.5768 22.0998 9.67295 22.0217 8.75358 22.3119C8.02465 22.542 7.30004 22.7869 6.5737 23.0253C6.35822 23.0253 6.14273 23.0253 5.92768 23.0253C5.099 22.8063 4.46464 22.3015 3.9188 21.6637C2.20271 19.6591 1.09679 17.3666 0.672732 14.7544C0.605367 14.3381 0.557002 13.9188 0.5 13.5008Z" fill="#363636"/>
<path d="M9.49072 6.03446C9.21824 3.47328 11.4789 1.13146 13.8911 0.974274C13.9649 1.67859 13.8803 2.36563 13.6186 3.01899C13.1885 4.09425 12.4898 4.96309 11.5039 5.58061C10.8903 5.96494 10.2097 6.09708 9.49072 6.03446Z" fill="#363636"/>
</g>
<defs>
<clipPath id="clip0_6_203">
<rect width="18" height="22.0514" fill="white" transform="translate(0.5 0.974274)"/>
</clipPath>
</defs>
</svg>
