<svg width="21" height="17" viewBox="0 0 21 17" fill="none" xmlns="http://www.w3.org/2000/svg">
<path d="M17.7243 15.8778H3.49307C2.12188 15.8778 1 14.7296 1 13.3024V3.43026C1 2.01382 2.11149 0.854912 3.49307 0.854912H17.7243C19.0955 0.854912 20.2174 2.00309 20.2174 3.43026V13.3024C20.2174 14.7296 19.1059 15.8778 17.7243 15.8778Z" fill="white" fill-opacity="0.67" stroke="#141718" stroke-width="1.58371" stroke-linecap="round" stroke-linejoin="round"/>
<path d="M19.1474 1.68081L12.011 8.99909C11.2111 9.82535 10.0062 9.82535 9.1959 8.99909L2.05951 1.68081" fill="white" fill-opacity="0.67"/>
<path d="M19.1474 1.68081L12.011 8.99909C11.2111 9.82535 10.0062 9.82535 9.1959 8.99909L2.05951 1.68081" stroke="#141718" stroke-width="1.58371" stroke-linecap="round" stroke-linejoin="round"/>
<path d="M12.8213 8.28024L19.1474 14.622" stroke="#141718" stroke-width="1.58371" stroke-linecap="round" stroke-linejoin="round"/>
<path d="M2.06982 14.6223L8.46869 8.36633" stroke="#141718" stroke-width="1.58371" stroke-linecap="round" stroke-linejoin="round"/>
</svg>
