<svg width="21" height="20" viewBox="0 0 21 20" fill="none" xmlns="http://www.w3.org/2000/svg">
<g clip-path="url(#clip0_6_216)">
<path d="M0.5 10.8854C0.5 10.3256 0.5 9.7659 0.5 9.20617C0.565759 9.17799 0.539533 9.11693 0.544622 9.07035C0.760294 7.05728 1.49616 5.25714 2.79137 3.70046C5.93722 -0.0806585 11.2327 -1.03103 15.4969 1.40713C19.2858 3.57325 21.2484 8.06832 20.2354 12.3125C19.5622 15.1338 17.9507 17.2761 15.453 18.7451C14.4075 19.36 13.276 19.7475 12.0712 19.9358C12.0665 19.9009 12.0602 19.8755 12.0602 19.8501C12.0598 17.5986 12.061 15.3468 12.0563 13.0953C12.0559 12.9611 12.1115 12.9528 12.2176 12.9532C12.8552 12.9568 13.4932 12.9548 14.1308 12.9548C14.4091 12.9548 14.4013 12.9536 14.4412 12.68C14.5586 11.8725 14.6741 11.0646 14.8115 10.2607C14.8436 10.0728 14.79 10.0614 14.6365 10.0622C13.8298 10.0677 13.0227 10.0653 12.2156 10.0642C12.1447 10.0642 12.0539 10.0959 12.0586 9.96161C12.0817 9.26019 12.0152 8.55681 12.0966 7.85617C12.1725 7.20406 12.6559 6.74218 13.312 6.66273C13.8055 6.60284 14.2995 6.64002 14.7931 6.63063C14.9003 6.62867 14.9544 6.61967 14.9532 6.48698C14.9461 5.75815 14.9477 5.02933 14.9524 4.30051C14.9532 4.19365 14.9176 4.14785 14.8154 4.13533C13.8803 4.02025 12.944 3.89069 12.0011 4.01712C11.1537 4.13063 10.408 4.46294 9.83185 5.12053C9.21693 5.82235 8.97111 6.66429 8.94176 7.57239C8.91671 8.34583 8.93275 9.12124 8.93941 9.89546C8.94058 10.0305 8.9077 10.07 8.76875 10.0689C8.04658 10.0614 7.32402 10.0728 6.60185 10.0603C6.4214 10.0571 6.39244 10.1131 6.394 10.2767C6.40222 11.1097 6.40144 11.9426 6.39439 12.7755C6.39322 12.9196 6.42649 12.9607 6.57484 12.9591C7.29701 12.9505 8.01957 12.9615 8.74174 12.9509C8.91083 12.9485 8.9398 13.0006 8.9398 13.1568C8.93471 15.3499 8.93628 17.543 8.93628 19.7362C8.93628 19.8004 8.93628 19.8645 8.93628 19.9307C7.97417 19.8148 6.80304 19.4453 5.74738 18.8531C2.87788 17.2436 1.1662 14.8101 0.612338 11.5645C0.573587 11.3382 0.596681 11.1014 0.5 10.8854Z" fill="#0079F9"/>
</g>
<defs>
<clipPath id="clip0_6_216">
<rect width="20" height="19.8716" fill="white" transform="translate(0.5 0.0641785)"/>
</clipPath>
</defs>
</svg>
