<svg width="21" height="20" viewBox="0 0 21 20" fill="none" xmlns="http://www.w3.org/2000/svg">
<g clip-path="url(#clip0_6_207)">
<path d="M13.5864 14.2704C14.2191 13.7896 14.7532 13.2223 15.1247 12.5132C15.1482 12.4686 15.169 12.4228 15.2101 12.3382C13.6205 12.3382 12.0602 12.3382 10.5 12.3382C10.5 10.7799 10.5 9.22204 10.5 7.66376C10.565 7.66141 10.63 7.6575 10.695 7.6575C13.6882 7.6571 16.6818 7.6571 19.6754 7.6571C20.0822 7.6571 20.2827 7.83055 20.345 8.23304C20.3959 8.56192 20.4483 8.89081 20.5004 9.21969C20.5004 9.75334 20.5004 10.2874 20.5004 10.821C20.4632 10.8363 20.464 10.8696 20.4616 10.9017C20.3935 11.7513 20.204 12.5755 19.9072 13.3726C19.2831 15.048 18.2937 16.4692 16.9179 17.6164C16.8698 17.5639 16.8239 17.5091 16.7734 17.4586C15.7108 16.3956 14.6486 15.333 13.5864 14.2704Z" fill="#2B76E5"/>
<path d="M5.44617 11.5516C5.73551 12.4 6.17872 13.1533 6.82983 13.7759C7.82391 14.7261 9.00789 15.2273 10.3837 15.2727C10.4225 15.2739 10.4612 15.2778 10.5 15.2805C10.5 16.8537 10.5 18.4272 10.5 20.0004C10.2267 20.0004 9.95304 20.0004 9.67975 20.0004C9.4836 19.9064 9.26669 19.9264 9.06036 19.8935C6.36273 19.4624 4.20229 18.1379 2.54025 15.9833C2.31434 15.6904 2.09978 15.3878 1.93143 15.0558C2.00112 14.9876 2.0712 14.9203 2.14011 14.8518C3.24226 13.7516 4.34441 12.6518 5.44617 11.5516Z" fill="#00C55F"/>
<path d="M10.5004 20.0004C10.5004 18.4272 10.5004 16.8537 10.5004 15.2805C11.6284 15.2465 12.6644 14.9317 13.5868 14.2704C14.649 15.333 15.7112 16.396 16.7727 17.459C16.8228 17.5095 16.869 17.5639 16.9171 17.6168C16.7449 17.7851 16.5499 17.9253 16.3561 18.0659C15.0456 19.0141 13.5993 19.6359 11.9964 19.8888C11.7584 19.9264 11.5121 19.9154 11.2819 20.0008C11.0211 20.0004 10.7608 20.0004 10.5004 20.0004Z" fill="#00A967"/>
<path d="M1.93533 4.93402C2.58292 3.80956 3.43527 2.86363 4.46029 2.07391C5.95162 0.924782 7.63675 0.250181 9.50865 0.0505017C9.83753 0.0152642 10.1688 -0.0156665 10.5012 0.00743365C10.5012 1.57863 10.5012 3.14983 10.5012 4.72103C9.21304 4.74648 8.06704 5.15719 7.08274 5.99506C6.34824 6.61994 5.82437 7.39203 5.50293 8.30116C5.48335 8.35597 5.46143 8.41 5.44029 8.46442C5.38391 8.40178 5.33066 8.336 5.27115 8.27649C4.1596 7.16181 3.04727 6.04792 1.93533 4.93402Z" fill="#FE5501"/>
<path d="M1.93535 4.93402C3.04729 6.04792 4.15923 7.16181 5.27077 8.27649C5.33029 8.336 5.38353 8.40178 5.43991 8.46442C5.33263 8.91194 5.24297 9.36141 5.22771 9.82381C5.20813 10.4119 5.29896 10.9851 5.44618 11.5516C4.34442 12.6518 3.24227 13.752 2.14012 14.8518C2.07121 14.9207 2.00113 14.9877 1.93144 15.0558C1.38682 14.1831 1.00704 13.2411 0.771732 12.2427C0.165648 9.66994 0.586148 7.25421 1.90051 4.97905C1.9099 4.9626 1.92361 4.9489 1.93535 4.93402Z" fill="#FED701"/>
<path d="M10.5008 4.72104C10.5008 3.14984 10.5008 1.57864 10.5008 0.0074418C12.0152 -0.0125261 13.4419 0.347287 14.8009 1.00036C15.5362 1.35351 16.212 1.79907 16.8431 2.31432C17.1665 2.57821 17.1967 2.96778 16.9011 3.26456C16.0883 4.08128 15.2716 4.8937 14.4529 5.70456C14.2023 5.95278 13.9263 5.97706 13.644 5.77112C12.9114 5.2359 12.0986 4.90153 11.2012 4.7782C10.9691 4.74649 10.7341 4.73944 10.5008 4.72104Z" fill="#FE0E01"/>
<path d="M10.5 7.66336C10.5 9.22164 10.5 10.7795 10.5 12.3378C10.1551 12.3225 9.91742 12.0994 9.91624 11.7638C9.91155 10.5881 9.91155 9.41231 9.91624 8.23695C9.91742 7.9018 10.1562 7.67785 10.5 7.66336Z" fill="#1688FB"/>
</g>
<defs>
<clipPath id="clip0_6_207">
<rect width="20" height="20.0008" fill="white" transform="translate(0.5 -0.000396729)"/>
</clipPath>
</defs>
</svg>
