<svg width="21" height="23" viewBox="0 0 21 23" fill="none" xmlns="http://www.w3.org/2000/svg">
<path d="M1 18.0491V13.6145C1 11.6806 2.56809 10.1024 4.5143 10.1024H15.8245C17.7596 10.1024 19.3388 11.6695 19.3388 13.6145V18.0491C19.3388 19.9829 17.7707 21.5612 15.8245 21.5612H4.5143C2.56809 21.5612 1 19.9941 1 18.0491Z" fill="white" fill-opacity="0.67" stroke="#141718" stroke-width="1.64969" stroke-linecap="round" stroke-linejoin="round"/>
<path d="M4.43646 10.1137V6.72382C4.43646 3.56738 7.00545 1 10.1639 1C13.3223 1 15.8913 3.56738 15.8913 6.72382V10.1137H4.43646Z" stroke="#141718" stroke-width="1.64969" stroke-linecap="round" stroke-linejoin="round"/>
<path d="M10.1638 18.127V15.2596" stroke="#141718" stroke-width="1.64969" stroke-linecap="round" stroke-linejoin="round"/>
<path d="M10.1639 15.8376C10.7965 15.8376 11.3093 15.325 11.3093 14.6928C11.3093 14.0606 10.7965 13.548 10.1639 13.548C9.53122 13.548 9.01837 14.0606 9.01837 14.6928C9.01837 15.325 9.53122 15.8376 10.1639 15.8376Z" fill="white" fill-opacity="0.67" stroke="#141718" stroke-width="1.64969" stroke-linecap="round" stroke-linejoin="round"/>
</svg>
