<svg width="193" height="52" viewBox="0 0 193 52" fill="none" xmlns="http://www.w3.org/2000/svg">
<path d="M3.57898 42.4268H4.21749L6.90854 49.1402H6.32922L5.49138 47.0872H2.28329L1.44545 49.1402H0.887939L3.57898 42.4268ZM5.33253 46.6077L3.88734 42.9933L2.44214 46.6077H5.33253Z" fill="#092651"/>
<path d="M15.1903 46.4159V49.1402H14.6826V46.4369C14.6826 45.8675 14.5456 45.4329 14.2684 45.1272C13.9943 44.8245 13.6081 44.6716 13.116 44.6716C12.5772 44.6716 12.1536 44.8574 11.839 45.2321C11.5244 45.6067 11.3718 46.1102 11.3718 46.7426V49.1402H10.8641V44.279H11.3033L11.3842 45.316C11.5369 44.9833 11.7674 44.7196 12.0726 44.5188C12.3778 44.321 12.7547 44.2221 13.2001 44.2221C13.8043 44.2221 14.2871 44.4049 14.6515 44.7675C15.0097 45.1302 15.1903 45.6816 15.1903 46.4159Z" fill="#092651"/>
<path d="M21.3013 48.5648L23.0268 44.279H23.575L21.1518 50.0424C21.0334 50.3301 20.9307 50.5399 20.8434 50.6747C20.7562 50.8096 20.6503 50.9055 20.5257 50.9684C20.4012 51.0314 20.2236 51.0584 19.9963 51.0584H19.2176V50.6088H19.8561C20.0274 50.6088 20.1613 50.5908 20.2486 50.5518C20.3389 50.5129 20.4105 50.45 20.4666 50.36C20.5226 50.2701 20.5974 50.1233 20.6908 49.9195L21.021 49.1612L18.9965 44.279H19.5446L21.3013 48.5648Z" fill="#092651"/>
<path d="M27.4994 44.279L28.9757 48.5558L30.5019 44.279H30.9816L32.4174 48.5558L33.9716 44.279H34.4887L32.6946 49.1402H32.1465L30.7199 45.0552L29.2343 49.1402L28.6767 49.1492L26.9637 44.279H27.4994Z" fill="#092651"/>
<path d="M42.7113 46.4159V49.1402H42.2036V46.4369C42.2036 45.8674 42.0666 45.4329 41.7894 45.1272C41.5153 44.8245 41.1291 44.6716 40.6369 44.6716C40.0981 44.6716 39.6745 44.8574 39.36 45.2321C39.0454 45.6067 38.8928 46.1102 38.8928 46.7426V49.1402H38.3851V42.4268H38.8928V45.4299C39.0454 45.0582 39.2758 44.7645 39.5811 44.5487C39.8863 44.3299 40.2663 44.2221 40.7179 44.2221C41.3222 44.2221 41.8049 44.4049 42.1693 44.7675C42.5275 45.1302 42.7113 45.6816 42.7113 46.4159Z" fill="#092651"/>
<path d="M47.9875 44.5307C48.3426 44.3239 48.7475 44.2191 49.1991 44.2191C49.6445 44.2191 50.0401 44.309 50.3858 44.4918C50.7315 44.6746 51.0056 44.9383 51.2081 45.283C51.4105 45.6277 51.5195 46.0383 51.532 46.5118C51.532 46.6017 51.5289 46.6676 51.5226 46.7126H47.4082C47.402 46.7396 47.3989 46.7755 47.3989 46.8265C47.4051 47.2041 47.4892 47.5368 47.648 47.8275C47.8069 48.1182 48.028 48.346 48.3052 48.5078C48.5855 48.6697 48.9001 48.7536 49.252 48.7536C49.6632 48.7536 50.0214 48.6427 50.3297 48.4239C50.635 48.2021 50.8374 47.9054 50.9371 47.5278H51.4541C51.3357 48.0253 51.0803 48.4299 50.691 48.7356C50.3017 49.0413 49.8345 49.1972 49.2894 49.1972C48.8191 49.1972 48.3986 49.0923 48.028 48.8825C47.6605 48.6697 47.3739 48.376 47.1715 48.0013C46.969 47.6267 46.8662 47.1921 46.8662 46.7066C46.8662 46.2211 46.9628 45.7895 47.159 45.4119C47.3552 45.0313 47.6324 44.7405 47.9875 44.5307ZM50.4481 45.0822C50.1273 44.7945 49.713 44.6506 49.2085 44.6506C48.9032 44.6506 48.6198 44.7196 48.3613 44.8574C48.1028 44.9953 47.891 45.1871 47.7228 45.4389C47.5546 45.6906 47.4611 45.9753 47.4331 46.302H51.0025C50.9558 45.7775 50.772 45.3699 50.4481 45.0822Z" fill="#092651"/>
<path d="M58.0385 44.7465H57.7083C57.1633 44.7465 56.7833 44.9234 56.5715 45.28C56.3597 45.6367 56.2538 46.1012 56.2538 46.6767V49.1402H55.7461V44.279H56.1852L56.2662 45.2471C56.3846 44.9474 56.5652 44.7106 56.8051 44.5368C57.0449 44.3629 57.3813 44.279 57.8111 44.279H58.0416V44.7465H58.0385Z" fill="#092651"/>
<path d="M62.997 44.5307C63.352 44.3239 63.7569 44.2191 64.2086 44.2191C64.654 44.2191 65.0495 44.309 65.3952 44.4918C65.741 44.6746 66.0151 44.9383 66.2175 45.283C66.42 45.6277 66.529 46.0383 66.5414 46.5118C66.5414 46.6017 66.5383 46.6676 66.5321 46.7126H62.4176C62.4114 46.7396 62.4083 46.7755 62.4083 46.8265C62.4145 47.2041 62.4986 47.5368 62.6575 47.8275C62.8163 48.1182 63.0375 48.346 63.3147 48.5078C63.595 48.6697 63.9096 48.7536 64.2615 48.7536C64.6726 48.7536 65.0308 48.6427 65.3392 48.4239C65.6444 48.2021 65.8469 47.9054 65.9465 47.5278H66.4636C66.3452 48.0253 66.0898 48.4299 65.7005 48.7356C65.3111 49.0413 64.8439 49.1972 64.2989 49.1972C63.8286 49.1972 63.4081 49.0923 63.0375 48.8825C62.6699 48.6697 62.3834 48.376 62.1809 48.0013C61.9785 47.6237 61.8757 47.1921 61.8757 46.7066C61.8757 46.2211 61.9723 45.7895 62.1685 45.4119C62.3678 45.0313 62.6419 44.7405 62.997 44.5307ZM65.4607 45.0822C65.1398 44.7945 64.7256 44.6506 64.221 44.6506C63.9158 44.6506 63.6324 44.7196 63.3738 44.8574C63.1153 44.9953 62.9035 45.1871 62.7353 45.4389C62.5672 45.6906 62.4737 45.9753 62.4457 46.302H66.0151C65.9652 45.7775 65.7815 45.3699 65.4607 45.0822Z" fill="#092651"/>
<path d="M71.584 49.2661C71.584 49.5868 71.4812 49.8475 71.2788 50.0483C71.0763 50.2491 70.8054 50.357 70.4659 50.369V50.0813C70.7057 50.0753 70.8895 49.9974 71.0203 49.8475C71.1511 49.6977 71.2134 49.5239 71.2134 49.326C71.2134 49.2182 71.1822 49.1342 71.1231 49.0773C71.0763 49.1552 70.9923 49.1912 70.8739 49.1912C70.7742 49.1912 70.6901 49.1612 70.6247 49.1013C70.5593 49.0413 70.5251 48.9574 70.5251 48.8465C70.5251 48.7386 70.5656 48.6487 70.6434 48.5768C70.7244 48.5049 70.8303 48.4719 70.9611 48.4719C71.1417 48.4719 71.2881 48.5498 71.4034 48.7057C71.5186 48.8615 71.584 49.0473 71.584 49.2661Z" fill="#092651"/>
<path d="M83.9243 42.4268H84.5627L87.2538 49.1402H86.6745L85.8366 47.0872H82.6286L81.7907 49.1402H81.2332L83.9243 42.4268ZM85.6778 46.6077L84.2326 42.9933L82.7874 46.6077H85.6778Z" fill="#092651"/>
<path d="M95.5356 46.4159V49.1402H95.0279V46.4369C95.0279 45.8675 94.8909 45.4329 94.6137 45.1272C94.3396 44.8245 93.9534 44.6716 93.4613 44.6716C92.9224 44.6716 92.4988 44.8574 92.1843 45.2321C91.8697 45.6067 91.7171 46.1102 91.7171 46.7426V49.1402H91.2094V44.279H91.6485L91.7295 45.316C91.8821 44.9833 92.1126 44.7196 92.4179 44.5188C92.7231 44.321 93.1 44.2221 93.5454 44.2221C94.1496 44.2221 94.6324 44.4049 94.9968 44.7675C95.3518 45.1302 95.5356 45.6816 95.5356 46.4159Z" fill="#092651"/>
<path d="M101.643 48.5648L103.369 44.279H103.917L101.494 50.0424C101.376 50.3301 101.273 50.5399 101.186 50.6747C101.098 50.8096 100.992 50.9055 100.868 50.9684C100.743 51.0314 100.566 51.0584 100.338 51.0584H99.5597V50.6088H100.198C100.37 50.6088 100.503 50.5908 100.591 50.5518C100.681 50.5129 100.753 50.45 100.809 50.36C100.865 50.2701 100.939 50.1233 101.033 49.9195L101.363 49.1612L99.3386 44.279H99.8867L101.643 48.5648Z" fill="#092651"/>
<path d="M108.303 42.9153V44.276H109.648V44.7256H108.303V47.9953C108.303 48.2441 108.355 48.4209 108.461 48.5288C108.567 48.6337 108.748 48.6877 109 48.6877H109.738V49.1372H108.972C108.545 49.1372 108.243 49.0473 108.066 48.8675C107.885 48.6877 107.798 48.3999 107.798 48.0043V42.9123H108.303V42.9153Z" fill="#092651"/>
<path d="M114.233 42.8404C114.233 42.9423 114.199 43.0262 114.133 43.0892C114.068 43.1521 113.981 43.1851 113.875 43.1851C113.775 43.1851 113.691 43.1521 113.619 43.0892C113.551 43.0262 113.513 42.9423 113.513 42.8404C113.513 42.7385 113.548 42.6546 113.619 42.5917C113.688 42.5287 113.775 42.4958 113.875 42.4958C113.981 42.4958 114.068 42.5287 114.133 42.5917C114.199 42.6546 114.233 42.7385 114.233 42.8404ZM114.133 44.279V49.1402H113.625V44.279H114.133Z" fill="#092651"/>
<path d="M126.022 46.359V49.1402H125.505V46.3889C125.505 45.8315 125.383 45.4089 125.137 45.1122C124.891 44.8185 124.545 44.6716 124.1 44.6716C123.63 44.6716 123.25 44.8365 122.969 45.1661C122.686 45.4958 122.54 45.9394 122.527 46.4938V49.1402H122.019V46.3889C122.019 45.8315 121.895 45.4089 121.646 45.1122C121.396 44.8185 121.048 44.6716 120.593 44.6716C120.113 44.6716 119.733 44.8544 119.447 45.2171C119.16 45.5797 119.017 46.0653 119.017 46.6647V49.1402H118.519V44.279H118.958L119.039 45.325C119.173 44.9923 119.378 44.7256 119.655 44.5248C119.936 44.324 120.278 44.2221 120.683 44.2221C121.088 44.2221 121.437 44.327 121.73 44.5338C122.023 44.7406 122.228 45.0433 122.346 45.4389C122.499 45.0612 122.73 44.7645 123.035 44.5487C123.34 44.33 123.717 44.2221 124.162 44.2221C124.72 44.2221 125.171 44.4019 125.514 44.7585C125.85 45.1152 126.022 45.6487 126.022 46.359Z" fill="#092651"/>
<path d="M131.292 44.5307C131.647 44.3239 132.052 44.2191 132.503 44.2191C132.949 44.2191 133.344 44.309 133.69 44.4918C134.036 44.6746 134.31 44.9383 134.512 45.283C134.715 45.6277 134.824 46.0383 134.836 46.5118C134.836 46.6017 134.833 46.6676 134.827 46.7126H130.712C130.706 46.7396 130.703 46.7755 130.703 46.8265C130.709 47.2041 130.793 47.5368 130.952 47.8275C131.111 48.1182 131.332 48.346 131.609 48.5078C131.89 48.6697 132.204 48.7536 132.556 48.7536C132.967 48.7536 133.326 48.6427 133.634 48.4239C133.939 48.2021 134.142 47.9054 134.241 47.5278H134.758C134.64 48.0253 134.385 48.4299 133.995 48.7356C133.606 49.0413 133.139 49.1972 132.594 49.1972C132.123 49.1972 131.703 49.0923 131.332 48.8825C130.965 48.6697 130.678 48.376 130.476 48.0013C130.273 47.6237 130.17 47.1921 130.17 46.7066C130.17 46.2211 130.267 45.7895 130.463 45.4119C130.659 45.0313 130.934 44.7405 131.292 44.5307ZM133.752 45.0822C133.431 44.7945 133.017 44.6506 132.513 44.6506C132.207 44.6506 131.924 44.7196 131.665 44.8574C131.407 44.9953 131.195 45.1871 131.027 45.4389C130.859 45.6906 130.765 45.9753 130.737 46.302H134.307C134.26 45.7775 134.073 45.3699 133.752 45.0822Z" fill="#092651"/>
<path d="M4.14898 1.07942H28.5397L33.14 18.3215L37.9023 1.07942H62.0252L64.5917 37.1101H48.5451L47.0469 12.9178L40.6276 37.1101H23.8864L17.735 13.691L16.5577 37.1101H2.06216L4.14898 1.07942Z" fill="#092651"/>
<path d="M67.1613 21.4115C67.1613 11.9408 74.7579 5.24832 87.8082 5.24832C101.288 5.24832 107.172 11.734 107.172 21.2047V23.9829H83.3699C85.0268 26.2487 88.5588 27.6363 94.6573 27.6363C99.4725 27.6363 103.107 26.5544 106.104 24.96V34.6884C102.519 36.6965 96.5292 38.2399 89.8421 38.2399C75.3995 38.2429 67.1613 31.3467 67.1613 21.4115ZM94.4424 18.6332C94.0157 16.3165 92.0877 14.8749 88.6647 14.8749C85.2947 14.8749 83.2608 16.3165 82.7812 18.6332H94.4424Z" fill="#092651"/>
<path d="M127.445 20.9469V37.1101H110.757V0.0514221H127.445V18.0667L135.521 6.63896H153.655L144.028 19.4034L161.828 49.0983H143.373L127.445 20.9469Z" fill="#092651"/>
<path d="M153.658 28.6703C153.658 22.907 158.632 18.9928 165.961 18.9928C170.667 18.9928 173.931 20.3835 176.445 23.2127C175.803 18.7351 171.897 16.4184 166.176 16.4184C162.164 16.4184 157.885 17.8599 155.05 20.0208V9.41723C158.903 7.04955 164.466 5.24832 171.9 5.24832C185.592 5.24832 192.709 11.4762 192.709 22.904V37.1101H176.61V32.8392C174.417 36.0311 170.511 38.141 165.054 38.141C157.937 38.141 153.658 34.125 153.658 28.6703ZM172.274 30.7263C174.841 30.7263 176.607 29.4915 176.607 27.7922C176.607 26.0419 174.894 24.8581 172.327 24.8581C169.919 24.8581 168.421 26.0929 168.421 27.7922C168.421 29.5455 169.92 30.7263 172.274 30.7263Z" fill="#092651"/>
</svg>
