<svg width="18" height="21" viewBox="0 0 18 21" fill="none" xmlns="http://www.w3.org/2000/svg">
<path fill-rule="evenodd" clip-rule="evenodd" d="M11.6385 2.12215C14.2044 4.38809 12.6017 8.62414 9.1785 8.62414C5.7126 8.62414 4.13339 4.29894 6.78389 2.06572C8.19248 0.878897 10.2579 0.902902 11.6385 2.12215ZM6.85849 20.0001C3.93712 20.0001 1.56888 17.6318 1.56888 14.7104V14.3121C1.56888 11.1707 4.11547 8.62412 7.25685 8.62412H10.5654C13.7068 8.62412 16.2534 11.1707 16.2534 14.3121V14.7104C16.2534 17.6318 13.8852 20.0001 10.9638 20.0001M6.85846 19.9866V14.5235L-nan -nanL6.85846 14.5235H8.91113C10.0448 14.5235 10.9638 15.4425 10.9638 16.5762V19.9866" fill="#5A595B"/>
<path d="M6.85849 20.8001C7.30032 20.8001 7.65849 20.4419 7.65849 20.0001C7.65849 19.5582 7.30032 19.2001 6.85849 19.2001V20.8001ZM10.9638 19.2001C10.522 19.2001 10.1638 19.5582 10.1638 20.0001C10.1638 20.4419 10.522 20.8001 10.9638 20.8001V19.2001ZM6.05846 19.9866C6.05846 20.4285 6.41663 20.7866 6.85846 20.7866C7.30029 20.7866 7.65846 20.4285 7.65846 19.9866H6.05846ZM10.1638 19.9866C10.1638 20.4285 10.522 20.7866 10.9638 20.7866C11.4056 20.7866 11.7638 20.4285 11.7638 19.9866H10.1638ZM2.36888 14.7104V14.3121H0.768878V14.7104H2.36888ZM7.25685 9.42412H10.5654V7.82412H7.25685V9.42412ZM15.4534 14.3121V14.7104H17.0534V14.3121H15.4534ZM7.65846 19.9866V14.5235H6.05846V19.9866H7.65846ZM6.85846 15.3235H8.91113V13.7235H6.85846V15.3235ZM10.1638 16.5762V19.9866H11.7638V16.5762H10.1638ZM15.4534 14.7104C15.4534 17.19 13.4433 19.2001 10.9638 19.2001V20.8001C14.327 20.8001 17.0534 18.0737 17.0534 14.7104H15.4534ZM10.5654 9.42412C13.265 9.42412 15.4534 11.6125 15.4534 14.3121H17.0534C17.0534 10.7289 14.1486 7.82412 10.5654 7.82412V9.42412ZM6.85849 19.2001C4.37895 19.2001 2.36888 17.19 2.36888 14.7104H0.768878C0.768878 18.0736 3.49529 20.8001 6.85849 20.8001V19.2001ZM7.29936 2.67751C8.40474 1.74617 10.0255 1.76501 11.109 2.72179L12.1681 1.5225C10.4902 0.0407971 7.98023 0.0116249 6.26842 1.45393L7.29936 2.67751ZM8.91113 15.3235C9.60297 15.3235 10.1638 15.8843 10.1638 16.5762H11.7638C11.7638 15.0007 10.4866 13.7235 8.91113 13.7235V15.3235ZM9.1785 7.82414C6.45868 7.82414 5.21942 4.43 7.29936 2.67751L6.26842 1.45393C3.04736 4.16788 4.96652 9.42414 9.1785 9.42414V7.82414ZM2.36888 14.3121C2.36888 11.6125 4.5573 9.42412 7.25685 9.42412V7.82412C3.67364 7.82412 0.768878 10.7289 0.768878 14.3121H2.36888ZM9.1785 9.42414C13.3386 9.42414 15.2863 4.27622 12.1681 1.5225L11.109 2.72179C13.1225 4.49996 11.8648 7.82414 9.1785 7.82414V9.42414Z" fill="#5A595B"/>
</svg>
