<svg width="21" height="23" viewBox="0 0 21 23" fill="none" xmlns="http://www.w3.org/2000/svg">
<path d="M10.1897 9.5687C12.4932 9.5687 14.3606 7.7025 14.3606 5.40042C14.3606 3.09835 12.4932 1.23215 10.1897 1.23215C7.88617 1.23215 6.0188 3.09835 6.0188 5.40042C6.0188 7.7025 7.88617 9.5687 10.1897 9.5687Z" fill="white" fill-opacity="0.67" stroke="#141718" stroke-width="2.11161" stroke-linecap="round" stroke-linejoin="round"/>
<path d="M1.76245 21.149V18.7732C1.76245 15.9991 4.0116 13.7656 6.77321 13.7656H14.2751C17.051 13.7656 19.2859 16.0133 19.2859 18.7732V21.149" fill="white" fill-opacity="0.67"/>
<path d="M1.76245 21.149V18.7732C1.76245 15.9991 4.0116 13.7656 6.77321 13.7656H14.2751C17.051 13.7656 19.2859 16.0133 19.2859 18.7732V21.149" stroke="#141718" stroke-width="2.11161" stroke-linecap="round" stroke-linejoin="round"/>
</svg>
